<svg xmlns="http://www.w3.org/2000/svg" width="29.266" height="26.051" viewBox="0 0 29.266 26.051">
  <path id="Caminho_1" data-name="Caminho 1" d="M606.6,612.958v0c-.04-1.19-.047-2.451-.148-3.768a21.338,21.338,0,0,0-.817-3.993,30.678,30.678,0,0,0-3.092-7.273,11.874,11.874,0,0,0-2.309-2.818,5.848,5.848,0,0,0-1.421-.907,4.1,4.1,0,0,0-1.656-.358,5.032,5.032,0,0,0-1.7.261,2.854,2.854,0,0,0-1.616,1.365,3.7,3.7,0,0,0-.375,1.735c0,.2.01.4.027.6.022.246.038.465.053.672l-.562-.4v-4.948a1.023,1.023,0,0,0-2.043,0h0v4.906l-.533.355c.013-.183.028-.379.047-.592v0c.016-.189.027-.388.027-.591a4.225,4.225,0,0,0-.144-1.15,2.783,2.783,0,0,0-1.159-1.609,4.55,4.55,0,0,0-4.544.01,9.272,9.272,0,0,0-2.883,2.932,27.532,27.532,0,0,0-2.965,6.3,25.093,25.093,0,0,0-1.292,5.5c-.1,1.317-.108,2.578-.148,3.768v0c0,.132-.007.26-.007.388a7.145,7.145,0,0,0,.289,2.148,3.672,3.672,0,0,0,1.6,2.124,4.732,4.732,0,0,0,2.463.595,12.531,12.531,0,0,0,2.814-.386c.959-.224,1.934-.514,2.886-.793h0a7.1,7.1,0,0,0,1.437-.576A3.977,3.977,0,0,0,590.356,615a6.643,6.643,0,0,0,.742-2.056,23.746,23.746,0,0,0,.614-4.946,13.257,13.257,0,0,0-.216-2.4c-.118-.654-.246-1.174-.315-1.659a16.412,16.412,0,0,0-.6-2.7c-.056-.2-.1-.357-.138-.52l1.477-.987,1.486,1.045c-.009.021-.012.037-.021.059-.191.444-.53.987-.847,1.616a5.02,5.02,0,0,0-.614,2.242,3.771,3.771,0,0,0,.407,1.668,12.817,12.817,0,0,0-.1,1.636,23.431,23.431,0,0,0,.614,4.946,8.123,8.123,0,0,0,.426,1.431,4.056,4.056,0,0,0,1.237,1.674,5.963,5.963,0,0,0,2.039.972c.952.28,1.927.57,2.886.793a12.539,12.539,0,0,0,2.814.386,5.4,5.4,0,0,0,1.68-.241,3.528,3.528,0,0,0,2.011-1.613,5.96,5.96,0,0,0,.663-3.012C606.6,613.214,606.6,613.087,606.6,612.958Zm-17.5-.4a6.319,6.319,0,0,1-.324,1.106,2.093,2.093,0,0,1-.645.9,3.949,3.949,0,0,1-1.338.611l.3.923-.3-.923c-.953.281-1.9.559-2.769.764a10.535,10.535,0,0,1-2.324.33,3.3,3.3,0,0,1-1.014-.136,1.486,1.486,0,0,1-.885-.712,4.214,4.214,0,0,1-.413-2.085c0-.1,0-.21.006-.32v0c.041-1.224.05-2.457.145-3.691a19.724,19.724,0,0,1,.75-3.623,28.824,28.824,0,0,1,2.885-6.807,9.973,9.973,0,0,1,1.908-2.353,3.8,3.8,0,0,1,.915-.592,2,2,0,0,1,.8-.181,2.9,2.9,0,0,1,.975.136.814.814,0,0,1,.509.413,1.916,1.916,0,0,1,.164.878c0,.136-.009.284-.021.438v0c-.074.853-.11,1.489-.11,2.008a6.558,6.558,0,0,0,.309,2.122,14.617,14.617,0,0,1,.54,2.441c.089.605.222,1.135.326,1.718a11.327,11.327,0,0,1,.186,2.081A21.874,21.874,0,0,1,589.093,612.563Zm6.527-1.021a2.769,2.769,0,0,1-.407.975,2.884,2.884,0,0,1-.291.355c-.025-.1-.05-.2-.074-.309a25.252,25.252,0,0,1-.539-3.585c.158.188.309.373.448.554a6.425,6.425,0,0,1,.672,1.027,1.786,1.786,0,0,1,.216.765A.985.985,0,0,1,595.62,611.542Zm8.735,3.392a1.723,1.723,0,0,1-.74,1.043,2.646,2.646,0,0,1-1.367.294,10.545,10.545,0,0,1-2.324-.33c-.873-.2-1.816-.483-2.769-.764a4.94,4.94,0,0,1-1.012-.4c-.077-.044-.144-.087-.207-.13a6.277,6.277,0,0,0,.992-1.078,4.643,4.643,0,0,0,.687-1.607v0a2.676,2.676,0,0,0,.074-.638,3.56,3.56,0,0,0-.407-1.582,10.346,10.346,0,0,0-1.382-1.979c-.517-.616-1.042-1.208-1.442-1.757a2.164,2.164,0,0,1-.487-1.308,2.524,2.524,0,0,1,.194-.912,15.9,15.9,0,0,1,.818-1.6,4.611,4.611,0,0,0,.632-1.976l.006-.021v-.037h0c.007-.155.013-.323.013-.508,0-.519-.034-1.156-.11-2.01-.013-.151-.021-.3-.021-.435a2.49,2.49,0,0,1,.076-.653.843.843,0,0,1,.352-.519,2.234,2.234,0,0,1,1.221-.255,2.193,2.193,0,0,1,1.092.33,7.406,7.406,0,0,1,2.22,2.316,25.755,25.755,0,0,1,2.746,5.855,23.565,23.565,0,0,1,1.2,5.054c.095,1.234.1,2.467.144,3.691v0c0,.113,0,.222,0,.327A5.3,5.3,0,0,1,604.356,614.934Z" transform="translate(-577.337 -592.154)" fill="#aeba00"/>
</svg>
