<svg xmlns="http://www.w3.org/2000/svg" width="31.281" height="26.32" viewBox="0 0 31.281 26.32">
  <g id="Grupo_162" data-name="Grupo 162" transform="translate(-861.993 -341.817)">
    <path id="Caminho_66" data-name="Caminho 66" d="M893.274,353.016a4.393,4.393,0,0,0-2.193-3.816,3.6,3.6,0,0,0-1-2.293A3.478,3.478,0,0,0,888,345.892a3.62,3.62,0,0,0-.89-1.463,3.51,3.51,0,0,0-2.464-1.012,3.461,3.461,0,0,0-.444.034,4.839,4.839,0,0,0-4.466-.881,3.431,3.431,0,0,0-4.068-.165,5.173,5.173,0,0,0-2.341-.559,5.228,5.228,0,0,0-4.107,2.013,3.453,3.453,0,0,0-.5-.049,3.513,3.513,0,0,0-2.52,1.068,3.64,3.64,0,0,0-1.031,2.547c0,.071.018.138.022.208a4.277,4.277,0,0,0-1.952,1.144,4.441,4.441,0,0,0,.47,6.6,3.037,3.037,0,0,0,.188.493,4.4,4.4,0,0,0,1.162,1.823,4.246,4.246,0,0,0,2.9,1.143,4.178,4.178,0,0,0,.6-.047,5.534,5.534,0,0,0,1.506,2.217,5.335,5.335,0,0,0,3.545,1.35,4.7,4.7,0,0,0,2.594-.678h0a.989.989,0,0,1,.494-.208l.083.022a1.033,1.033,0,0,1,.3.3,6,6,0,0,1,.391.639l.017.029,2.639,4.379.005.006a2.374,2.374,0,0,0,3.82.574,2.448,2.448,0,0,0,.693-1.711,2.762,2.762,0,0,0-.262-1.151c-.1-.228-.091-.221-.095-.287a.366.366,0,0,1,.15-.295c.063.027.131.041.2.064s.139.065.235.1a2.781,2.781,0,0,0,1,.183,2.547,2.547,0,0,0,1.746-.738c.079-.06.164-.113.237-.18a1,1,0,0,0,.268-.439,3.436,3.436,0,0,0,.5-1.48,5.126,5.126,0,0,0,2.795-1.473,5.228,5.228,0,0,0,1.35-4.931A4.427,4.427,0,0,0,893.274,353.016Zm-10.792,12.969a.326.326,0,0,1-.238.1.349.349,0,0,1-.314-.213.988.988,0,0,0-.063-.091l.011-.006-2.631-4.367a5.993,5.993,0,0,0-.784-1.158,2.725,2.725,0,0,0-.723-.571,2.214,2.214,0,0,0-1.044-.261,2.958,2.958,0,0,0-1.617.543h0a2.71,2.71,0,0,1-1.475.345,3.282,3.282,0,0,1-2.187-.835,3.491,3.491,0,0,1-1.028-1.652,3.956,3.956,0,0,0,1.286-2.478v0a4.123,4.123,0,0,0,.029-.487,3.984,3.984,0,0,0-.039-.518,3.676,3.676,0,0,0,2.56-1.229,3.822,3.822,0,0,0,.959-2.493,1.024,1.024,0,0,0-2.048-.025h0a1.771,1.771,0,0,1-.444,1.16,1.627,1.627,0,0,1-2.347.117,1.024,1.024,0,1,0-1.4,1.5,3.59,3.59,0,0,0,.309.238.983.983,0,0,0,.072.175h0a1.938,1.938,0,0,1,.327,1.079,2.085,2.085,0,0,1-.015.245,1.852,1.852,0,0,1-1.807,1.659,1.809,1.809,0,0,1-.227-.014c-.025,0-.047.007-.072.005a2.213,2.213,0,0,1-1.08-.554,2.341,2.341,0,0,1-.494-.657,1,1,0,0,0-.153-.437h0c-.01-.016-.014-.033-.023-.049a2.356,2.356,0,0,1-.068-.346,1.01,1.01,0,0,0-.065-.26.973.973,0,0,1,.4-.715,1.024,1.024,0,0,0-1.173-1.679,2.966,2.966,0,0,0-.669.672,2.321,2.321,0,0,1,.5-2.513,2.2,2.2,0,0,1,1.582-.675l.112,0a1.024,1.024,0,0,0,.959-1.443,1.622,1.622,0,0,1-.142-.667,1.592,1.592,0,0,1,.449-1.117,1.462,1.462,0,0,1,1.053-.45,1.434,1.434,0,0,1,.55.108,1.025,1.025,0,0,0,1.278-.436,3.207,3.207,0,0,1,2.778-1.635,3.135,3.135,0,0,1,1.833.59,1.024,1.024,0,0,0,1.353-.144,1.427,1.427,0,0,1,2.18.06,1.027,1.027,0,0,0,1.227.277,2.827,2.827,0,0,1,1.207-.269,2.863,2.863,0,0,1,2.047.864,1.02,1.02,0,0,0,1.036.258,1.458,1.458,0,0,1,1.465.359,1.589,1.589,0,0,1,.472,1.065,1.024,1.024,0,0,0,1.2.962,1.37,1.37,0,0,1,.24-.021,1.427,1.427,0,0,1,1.028.439,1.556,1.556,0,0,1,.439,1.092,1.656,1.656,0,0,1-.02.254,1.024,1.024,0,0,0,.668,1.122,2.334,2.334,0,0,1,1.522,2.211,2.376,2.376,0,0,1-.312,1.173c-.024.018-.053.025-.076.045h0a1.626,1.626,0,0,1-2.277-.071,1.764,1.764,0,0,1-.489-1.129,3.577,3.577,0,0,0,.291-1.409,1.024,1.024,0,0,0-2.048,0h0a1.519,1.519,0,0,1-.429,1.066,1.387,1.387,0,0,1-1.8.177,1.024,1.024,0,1,0-1.172,1.68,3.371,3.371,0,0,0,3.579.2,3.772,3.772,0,0,0,.6.844,3.682,3.682,0,0,0,2.642,1.12,3.625,3.625,0,0,0,1.106-.186,3.027,3.027,0,0,1-1.252,2.351c-.009.005-.018.006-.027.011h0a1.62,1.62,0,0,1-.927.294l-.216-.014a1.644,1.644,0,0,1-1.041-.573,1.78,1.78,0,0,1-.422-1.152,1.708,1.708,0,0,1,.014-.226,1.024,1.024,0,0,0-.88-1.15,1,1,0,0,0-.568.107,1,1,0,0,0-.823.355h0a1.887,1.887,0,0,1-2.915.029,1.024,1.024,0,0,0-1.554,1.335,3.914,3.914,0,0,0,4.915.882,3.818,3.818,0,0,0,.67,1.146,3.726,3.726,0,0,0,.75.655c0,.021,0,.042,0,.063h0c0,.012,0,.113.017.3l.011.187a1.41,1.41,0,0,1-.279.856,1.108,1.108,0,0,1-.613.2,1.132,1.132,0,0,1-.268-.035c-.081-.038-.183-.09-.332-.148L885.08,362a1.218,1.218,0,0,1-.2-.16,1.25,1.25,0,0,1-.353-.878,1.024,1.024,0,0,0-2.048,0,3.289,3.289,0,0,0,.436,1.62,2.431,2.431,0,0,0-.682,1.687,2.619,2.619,0,0,0,.262,1.1.723.723,0,0,1,.095.34A.4.4,0,0,1,882.482,365.985Z" transform="translate(0 0)" fill="#aeba00"/>
    <path id="Caminho_67" data-name="Caminho 67" d="M930.55,369.883a3.057,3.057,0,0,0,.555-1.756v0c0-.02.007-.039.005-.06l-.005-.1a1,1,0,0,1,.244-.656.9.9,0,0,1,.584-.311h0l.1-.005a.885.885,0,0,1,.523.173,1.024,1.024,0,0,0,1.2-1.657h0a2.936,2.936,0,0,0-1.728-.564,2.887,2.887,0,0,0-.327.018,2.934,2.934,0,0,0-1.711.819,3.01,3.01,0,0,0-.329-.243,1.024,1.024,0,1,0-1.067,1.748h0a.952.952,0,0,1,.413.539,1.009,1.009,0,0,1-.136.883.926.926,0,0,1-.326.276,1.02,1.02,0,0,0-1.124,1.528h0a1.718,1.718,0,0,1,.258.907,1.833,1.833,0,0,1-.021.27,1.629,1.629,0,0,1-1.582,1.406,1.568,1.568,0,0,1-.252-.021,1.024,1.024,0,0,0-.329,2.022,3.62,3.62,0,0,0,.58.047A3.676,3.676,0,0,0,929.685,372v0a3.824,3.824,0,0,0,.044-.58,3.755,3.755,0,0,0-.075-.707A2.98,2.98,0,0,0,930.55,369.883Z" transform="translate(-50.085 -18.489)" fill="#aeba00"/>
    <path id="Caminho_68" data-name="Caminho 68" d="M959.871,365.033h0Z" transform="translate(-78.254 -18.561)" fill="#aeba00"/>
  </g>
</svg>
