<svg xmlns="http://www.w3.org/2000/svg" width="43.332" height="33.418" viewBox="0 0 43.332 33.418">
  <g id="Grupo_168" data-name="Grupo 168" transform="translate(-841.025 -617.192)">
    <path id="Caminho_77" data-name="Caminho 77" d="M1045.049,681.376h0Z" transform="translate(-162.924 -51.255)" fill="#aeba00"/>
    <path id="Caminho_78" data-name="Caminho 78" d="M965.464,779.4h0Z" transform="translate(-99.371 -129.528)" fill="#aeba00"/>
    <path id="Caminho_79" data-name="Caminho 79" d="M884.142,622.182h0a2.954,2.954,0,0,0-2.476-1.926h-.013c-.1-.005-.206-.008-.309-.008a6.046,6.046,0,0,0-4.4,1.9h0a5.048,5.048,0,0,1-2.837,1.478l-.082,0a2.9,2.9,0,0,1-1.323-.37,8.625,8.625,0,0,1-2.049-1.617,24.079,24.079,0,0,1-1.8-2.091l-.011-.014-.134-.13-.069-.077,0,0,0,0a6.909,6.909,0,0,0-4.99-2.13h-1.935a6.907,6.907,0,0,0-4.988,2.13l0,0-.177.2-.006.006-.01.01-.011.014q-.172.2-.327.414a17.608,17.608,0,0,1-2.346,2.49,6.441,6.441,0,0,1-1.275.852,2.824,2.824,0,0,1-1.223.318l-.073,0a5.05,5.05,0,0,1-2.84-1.479h0a6.04,6.04,0,0,0-4.4-1.9q-.155,0-.311.008h-.012a2.952,2.952,0,0,0-2.475,1.923h0a3.375,3.375,0,0,0,.57,3.351v0l0,0c.148.168.305.329.463.491l.436.445v-.044a2.766,2.766,0,0,1,.481,2.936l-.005.012,0,.014a.959.959,0,0,0,.64,1.2l.018.005.223.033.036-.248v.251h0a.96.96,0,0,0,.918-.682h0c.036-.118.067-.238.1-.358a5.316,5.316,0,0,0,.913.577h0a5.045,5.045,0,0,0,2.212.551h.008l.366-.018h.008a2.362,2.362,0,0,0,2.353-2.15c.007-.071.01-.142.01-.213a2.359,2.359,0,0,0-.475-1.419h0a4.87,4.87,0,0,0-1.988-1.751h0l0,0,0,0h0a4.864,4.864,0,0,0-2.234-.544q-.179,0-.357.013h0a2.664,2.664,0,0,0-1.666.725c-.193-.232-.394-.458-.608-.671h0c-.139-.141-.271-.278-.391-.413a1.443,1.443,0,0,1-.224-1.414h0l0,0a1.04,1.04,0,0,1,.892-.691h.078a4.228,4.228,0,0,1,3.163,1.421l0,.005.005.005a6.8,6.8,0,0,0,3.965,1.946l.02,0h.02a6.044,6.044,0,0,0,3.662-1.388c0,.048,0,.095,0,.142q0,.249.015.5v0a9.7,9.7,0,0,0,2.355,5.688,10.644,10.644,0,0,1,.861,1.248,2.286,2.286,0,0,1,.314,1.125,2.963,2.963,0,0,1-.2,1.017,6.454,6.454,0,0,0,.127,5.862q-.078,1.185-.078,2.37a29.537,29.537,0,0,0,1.037,7.756h0v0h0a.96.96,0,0,0,.933.742h.014l.173-.02.014,0,.014,0a.959.959,0,0,0,.721-1.151v0a30.857,30.857,0,0,1-1.021-7.867c0-.3,0-.606.012-.908a2.538,2.538,0,0,0,.353.025,2.585,2.585,0,0,0,1.732-.665l.016-.014.013-.016a1.967,1.967,0,0,0,.325-1.866,16.782,16.782,0,0,1-.026-4.087v-.014c.049-.817.1-1.592.1-2.227v0q.015-.287.015-.573a11.081,11.081,0,0,0-2.31-6.772l-.005-.007-.006-.007a9.706,9.706,0,0,0-.911-.9c.717-.056,1.5-.094,2.289-.094h1.949c.79,0,1.571.039,2.289.094a9.711,9.711,0,0,0-.911.9l-.006.006-.005.007a11.083,11.083,0,0,0-2.31,6.773q0,.279.014.559c0,.637.048,1.418.1,2.241l.015.239h.01a16.639,16.639,0,0,1-.049,3.863,1.966,1.966,0,0,0,.325,1.866l.008.011.01.01a2.2,2.2,0,0,0,1.564.651c.052,0,.1,0,.158-.006h0c.118,0,.236-.007.354-.016.008.307.015.615.015.922a30.919,30.919,0,0,1-1.02,7.874v0a.96.96,0,0,0,1.871.43,29.558,29.558,0,0,0,1.038-7.76q0-1.184-.078-2.369a6.455,6.455,0,0,0,.126-5.864,2.958,2.958,0,0,1-.2-1.016,2.281,2.281,0,0,1,.315-1.125,10.618,10.618,0,0,1,.861-1.248,9.7,9.7,0,0,0,2.355-5.688v0q.015-.248.015-.5c0-.052,0-.1,0-.155a6.072,6.072,0,0,0,3.679,1.4h.02l.02,0a6.8,6.8,0,0,0,3.965-1.946l0,0,.005-.006a4.23,4.23,0,0,1,3.163-1.421h.078a1.04,1.04,0,0,1,.892.691v0l0,0a1.444,1.444,0,0,1-.223,1.414c-.12.136-.252.271-.391.413h0a9.263,9.263,0,0,0-.627.693,3.651,3.651,0,0,0-1.971-.783q-.151-.013-.3-.013a3.653,3.653,0,0,0-1.985.587,4.87,4.87,0,0,0-1.976,1.74h0l0,0,0,0h0a2.541,2.541,0,0,0-.233,2.462l.006.013.007.013a2.658,2.658,0,0,0,2.3,1.32c.065,0,.131,0,.2-.008h0a5.007,5.007,0,0,0,2.2-.551h0a5.293,5.293,0,0,0,.913-.574c.029.119.061.238.1.356a.96.96,0,0,0,.918.683h.019l.44-.065v-.053a.959.959,0,0,0,.46-1.12l0-.013-.006-.013a2.771,2.771,0,0,1,.887-3.311l.016-.011.014-.014c.158-.161.315-.323.462-.49h0l0,0a3.374,3.374,0,0,0,.571-3.35ZM868.6,624.332q0,.174-.009.347a7.875,7.875,0,0,1-1.954,4.628,4.965,4.965,0,0,0-1.259,5.227l.006.017.008.017a4.574,4.574,0,0,1,.062,4.106,3.51,3.51,0,0,1-.575.058,1.289,1.289,0,0,1-.242-.019l.009-.025.007-.02,0-.021a16.522,16.522,0,0,0,.1-4.751c-.049-.8-.094-1.552-.094-2.12h-.248l.248-.014q-.015-.265-.015-.529a9.229,9.229,0,0,1,1.843-5.533,5.164,5.164,0,0,1,2.111-1.58C868.6,624.19,868.6,624.261,868.6,624.332Zm-4.934-2.811h-1.95a36.052,36.052,0,0,0-4.4.3,4.894,4.894,0,0,1,.426-.718l.157-.2c.077-.1.147-.184.219-.261l0,0a5,5,0,0,1,3.6-1.53h1.923a5,5,0,0,1,3.6,1.528,4.831,4.831,0,0,1,.807,1.18,35.953,35.953,0,0,0-4.131-.294v0ZM858.9,625.7h0a9.226,9.226,0,0,1,1.842,5.531q0,.264-.015.53v.014c0,.569-.045,1.322-.094,2.121a16.424,16.424,0,0,0,.1,4.77l0,.023.008.021a1.293,1.293,0,0,1-.242.019,3.535,3.535,0,0,1-.592-.061,4.619,4.619,0,0,1,.062-4.1l.008-.016.006-.017a4.963,4.963,0,0,0-1.259-5.227,7.877,7.877,0,0,1-1.954-4.63q-.009-.171-.009-.343c0-.075,0-.15,0-.225A5.112,5.112,0,0,1,858.9,625.7Zm-12.594.832a3.165,3.165,0,0,1,1.359.348l0,0,0,0a2.992,2.992,0,0,1,1.212,1.044l.005.008.006.008a.482.482,0,0,1-.406.842h-.027l-.123,0a3.258,3.258,0,0,1-2.67-1.392l0-.005,0-.006a.482.482,0,0,1,.407-.842h.02Zm33.569.393a.8.8,0,0,1-.081.317,2.083,2.083,0,0,1-.461.62,3.39,3.39,0,0,1-.829.578l-.012.006a3.149,3.149,0,0,1-1.367.351,1.468,1.468,0,0,1-.54-.089.6.6,0,0,1-.155-.088.278.278,0,0,1-.063-.072.671.671,0,0,1,.119-.605l.006-.007.005-.008a2.989,2.989,0,0,1,1.211-1.043l0,0,0,0a3.144,3.144,0,0,1,1.37-.349h.015l.015,0a.851.851,0,0,1,.112-.008.819.819,0,0,1,.627.294A.3.3,0,0,1,879.876,626.927Z" fill="#aeba00"/>
  </g>
</svg>
