<svg xmlns="http://www.w3.org/2000/svg" id="logo_zambon-01" width="148.188" height="40.774" viewBox="0 0 148.188 40.774"><path id="Caminho_1400" data-name="Caminho 1400" d="M59.27,32.719H53.628c-.166,0-.484,0-.5-.089-.573-2-1.49-.344-2.229-.2a27.685,27.685,0,0,1-3.464.777c-2.063.127-4.139,0-6.444,0v2.025a5.183,5.183,0,0,1-5.514,5.527H5.579c-3.821,0-5.476-2.178-5.5-5.374q-.153-15-.013-29.953C.1,2.078,1.86,0,5.591,0c9.972.089,19.943.115,29.915,0A5.2,5.2,0,0,1,41.02,5.568c-.076,2.942,0,5.884,0,8.825a3.247,3.247,0,0,1-.739,1.834c-2.827,3.235-5.731,6.368-8.6,9.6-.216.242-.408.509-.713.9H40.88c.484-2.725,2.891-3.821,4.878-4.19s3.821-.688,5.629-1.019c.891-.166,1.274-.8,1.019-1.528a1.974,1.974,0,0,0-1.274-1.133c-1.159-.1-2.547-.5-3.069,1.274,0,.166-.42.318-.649.331H41.772a4.776,4.776,0,0,1,2.8-4.827,16.237,16.237,0,0,1,9.691-.726c1.872.408,3.5.93,4.292,2.814a4.037,4.037,0,0,1,.408,1.375v4.419c.076,3.005.166,6,.255,9.22Zm-20.376.522h-14.2c-4.2,0-4.113,0-4.05-4.164a4,4,0,0,1,.675-2.331c1.363-1.668,2.916-3.2,4.381-4.8l6.278-6.9H21.65V8.675H38.906V5.937c0-2.611-1.159-3.821-3.757-3.821H5.859c-2.547,0-3.821,1.159-3.821,3.744v28.87a3.821,3.821,0,0,0,3.821,3.884c9.933-.115,19.854,0,29.775-.076a3.515,3.515,0,0,0,1.732-.548c1.745-1.108,1.579-2.865,1.439-4.8Zm13.435-8.15a22.809,22.809,0,0,0-3.489.981,2.038,2.038,0,0,0-1.07,1.554,1.732,1.732,0,0,0,1.808,1.426c2.089.178,3.515-1.274,2.751-3.961Zm31.316,8.24V22.811a2.993,2.993,0,0,0-.993-1.974c-1.528-1.21-3.349.446-3.337,2.114V33.3H72.947c-.267,0-.675-.764-.688-1.184V23.282c-.14-2.012-.841-2.9-2.216-2.9A2.84,2.84,0,0,0,67.751,23.4v9.844H61.129V15.412h6.495l.153,1.719a7.908,7.908,0,0,1,5.489-2.343,6.266,6.266,0,0,1,5.094,2.674,7.526,7.526,0,0,1,6.864-2.623c2.725.446,4.508,1.719,5,4.266a23.572,23.572,0,0,1,.5,4.113c.076,2.942,0,5.884,0,8.825,0,1.019-.357,1.337-1.35,1.274-1.872-.064-3.744,0-5.82,0Z" transform="translate(0.003 0.008)" fill="#fff" fill-rule="evenodd"></path><path id="Caminho_1401" data-name="Caminho 1401" d="M78.032,30.015,77.8,31.658H71.27V7.27h6.622v8.049c1.121-.6,2.038-1.159,3.031-1.592a6.928,6.928,0,0,1,9.233,4.852,20.045,20.045,0,0,1,.471,6.177c-.6,4.177-3.056,7.641-8.112,7.514A5.5,5.5,0,0,1,78.032,30.015Zm2.751-3.031c1.656,0,2.547-.688,2.713-2.305.115-1.274,0-2.547,0-3.821a2.547,2.547,0,0,0-2.547-2.483A2.178,2.178,0,0,0,78.4,20.158a18.122,18.122,0,0,0-.318,4.6c.255,1.694,1.146,2.178,2.7,2.19Zm47.9,4.368h-6.215c-.917,0-.841-.624-.841-1.274v-9.4a2.075,2.075,0,0,0-2-2.343,2.356,2.356,0,0,0-2.42,2.331c-.076,2.9,0,5.807-.089,8.711,0,1.808-.14,1.923-1.923,1.923H110.2V13.434h6.431l.191,1.885a7.157,7.157,0,0,1,5.935-2.471,5.871,5.871,0,0,1,5.935,5.935v12.57Z" transform="translate(19.496 1.999)" fill="#fff" fill-rule="evenodd"></path><path id="Caminho_1402" data-name="Caminho 1402" d="M106,21c-.14,5.629-3.821,9.271-9.857,9.195s-9.6-3.6-9.6-9.309c0-5.476,3.5-9.157,9.717-9.207C102.191,11.616,105.948,15.412,106,21Zm-6.992,0h-.089a17.221,17.221,0,0,0,0-1.987,2.8,2.8,0,0,0-2.458-2.343c-1.006,0-2.216.306-2.458,1.515a23.979,23.979,0,0,0-.42,4.381,2.356,2.356,0,0,0,2.05,2.445c1.745.216,2.789-.306,3.222-1.77A10.874,10.874,0,0,0,99.008,21Z" transform="translate(23.673 3.205)" fill="#fff" fill-rule="evenodd"></path><path id="Caminho_1403" data-name="Caminho 1403" d="M19,28.541H18.25v-.713c.458,0,.917-.166.942-.739h.751v3.426H19Zm3.273,1.07a.331.331,0,0,0,.14.178.5.5,0,0,0,.229,0c.408,0,.509-.408.56-.688h0a1.032,1.032,0,0,1-.713.28,1.019,1.019,0,0,1-1.082-1.1,1.274,1.274,0,0,1,1.337-1.274c.93,0,1.274.764,1.274,1.63,0,1.082-.471,1.872-1.439,1.872a1.082,1.082,0,0,1-1.2-.942Zm0-1.274a.458.458,0,0,0,.458.458.446.446,0,0,0,.458-.433h0a.458.458,0,0,0-.446-.484.471.471,0,0,0-.5.395Zm4-1.274c.573,0,1.35.433,1.35,1.745s-.777,1.757-1.35,1.757-1.35-.433-1.35-1.757S25.675,27,26.248,27Zm0,2.751c.458,0,.484-.637.484-1.006s0-.993-.484-.993-.484.637-.484.993-.013.993.458.993Zm3.961-1.8a.4.4,0,0,0-.127-.191.433.433,0,0,0-.255,0c-.344,0-.509.357-.548.7a.942.942,0,0,1,.739-.267,1.019,1.019,0,0,1,1.057,1.1,1.184,1.184,0,0,1-1.274,1.274c-.968,0-1.35-.79-1.35-1.63,0-1.07.458-1.872,1.426-1.872a1.044,1.044,0,0,1,1.2.955Zm-.866,1.274a.433.433,0,0,0,.433.471.458.458,0,0,0,.458-.458h0a.446.446,0,0,0-.446-.458h0a.433.433,0,0,0-.433.458Z" transform="translate(4.995 7.395)" fill="#fff"></path></svg>