<svg xmlns="http://www.w3.org/2000/svg" width="22.88" height="30.684" viewBox="0 0 22.88 30.684">
  <path id="União_13" data-name="União 13" d="M13.227,29.566H13.1l-7.524-.648h0a1.624,1.624,0,0,1-1.49-1.624V22.3a.2.2,0,0,0-.032-.112.479.479,0,0,0-.078-.092,10.861,10.861,0,0,1-3.8-8.147A9.48,9.48,0,0,1,1.31,9.445L.517,8.6A1.969,1.969,0,0,1,.084,6.7,1.989,1.989,0,0,1,1.51,5.368l.14-.038L.565,3.772A2.036,2.036,0,0,1,.208,2.624a1.869,1.869,0,0,1,.125-.679h0A2,2,0,0,1,1.726.714h0L4.444.065h0A2.18,2.18,0,0,1,4.907,0,1.951,1.951,0,0,1,6.638,1.033h0L8.5,4.483a6.864,6.864,0,0,1,1.278-.107,9.524,9.524,0,0,1,9.544,8.731v.012a.51.51,0,0,0,.068.289v0l2.182,3.349,0,.007a1.818,1.818,0,0,1,.1,1.842v0h0a1.8,1.8,0,0,1-1.608.971h-.686v2.936a2.342,2.342,0,0,1-2.334,2.333h-2.2v3.09a1.589,1.589,0,0,1-.5,1.181h0l0,0,0,0h0a1.564,1.564,0,0,1-1.112.438ZM1.94,13.951a9.3,9.3,0,0,0,3.216,6.823l0,0v0A2.112,2.112,0,0,1,5.853,22.3v4.829l7.231.682.059-3.418a1.3,1.3,0,0,1,1.286-1.283h2.619a.6.6,0,0,0,.594-.594V19a1.12,1.12,0,0,1,1.132-1.132h1.295a.1.1,0,0,0,.062-.014.071.071,0,0,0,.023-.028.152.152,0,0,0,.015-.063.059.059,0,0,0-.018-.047l-.011-.01-2.229-3.405v0a2.453,2.453,0,0,1-.328-1.048h0A7.812,7.812,0,0,0,9.775,6.085c-.141,0-.278,0-.413.009l.417.761a1.9,1.9,0,0,1,.247.932,1.88,1.88,0,0,1-.178.8h0l0,0,0,0a1.867,1.867,0,0,1-1.333,1.1h0L7.89,9.83l1,2.086h0a2.033,2.033,0,0,1,.2.873,1.871,1.871,0,0,1-.3,1.019l0,0v0a1.946,1.946,0,0,1-3.095.3h0l-3.085-3.32A7.786,7.786,0,0,0,1.94,13.951ZM2.107,2.383a.213.213,0,0,0-.122.09.3.3,0,0,0-.052.166.227.227,0,0,0,.041.134h0L4.534,6.4l-2.22.512.018.009-.416.083a.226.226,0,0,0-.137.082.229.229,0,0,0-.048.143.247.247,0,0,0,.075.177l0,0,5.145,5.546a.283.283,0,0,0,.091.064.2.2,0,0,0,.083.015.25.25,0,0,0,.166-.071.227.227,0,0,0,.075-.161.215.215,0,0,0-.029-.106l0,0L5.342,8.674l2.735-.626a.242.242,0,0,0,.184-.232.214.214,0,0,0-.029-.109l0,0L5.083,1.872l0-.008a.182.182,0,0,0-.075-.1.249.249,0,0,0-.129-.029H4.8Z" transform="translate(0.5 0.5)" fill="#aeba00" stroke="rgba(0,0,0,0)" stroke-miterlimit="10" stroke-width="1"/>
</svg>
