<svg xmlns="http://www.w3.org/2000/svg" width="26.96" height="26.534" viewBox="0 0 26.96 26.534">
  <path id="Caminho_266" data-name="Caminho 266" d="M626.719,635.342a8.691,8.691,0,0,0-2.314-2.976,5.759,5.759,0,0,0-3.628-1.269,6.254,6.254,0,0,0-4.13,1.577,3.244,3.244,0,0,1-.37-.479,7.708,7.708,0,0,1-.847-2.155.952.952,0,1,0-1.842.481h0a9.541,9.541,0,0,0,1.078,2.688,4.931,4.931,0,0,0,.733.916,7.169,7.169,0,0,0-.931,2.191c-.214-.309-.422-.611-.618-.918a12.109,12.109,0,0,1-1.844-4.908.952.952,0,1,0-1.876.318h0a14.059,14.059,0,0,0,2.119,5.618,27.064,27.064,0,0,1,2.352,3.8c.034.113.069.229.1.335a5.9,5.9,0,0,1,.363,1.914v.083a1.784,1.784,0,0,1-.229.874,2.28,2.28,0,0,1-1.045.9,3.889,3.889,0,0,1-1.62.345,3.181,3.181,0,0,1-1.549-.367,5.179,5.179,0,0,0-3.461-1.5,4.413,4.413,0,0,0-2.41.741,7.074,7.074,0,0,0-2.464,3.006,9.993,9.993,0,0,0-.9,4.147,8.545,8.545,0,0,0,1.357,4.729.952.952,0,1,0,1.589-1.049h0a6.647,6.647,0,0,1-1.042-3.68,7.843,7.843,0,0,1,1.239-4.264,4.529,4.529,0,0,1,1.259-1.291,2.507,2.507,0,0,1,1.375-.435,3.352,3.352,0,0,1,2.268,1.083l.16.121a5.022,5.022,0,0,0,2.583.666,5.534,5.534,0,0,0,3.155-.946,3.939,3.939,0,0,0,1.164-1.263,3.692,3.692,0,0,0,.479-1.785v-.114a7.755,7.755,0,0,0-.45-2.481,5.931,5.931,0,0,1-.363-1.926,5.3,5.3,0,0,1,1.379-3.611A4.4,4.4,0,0,1,620.777,633a3.837,3.837,0,0,1,2.45.86,8.216,8.216,0,0,1,2.423,3.879,16.017,16.017,0,0,1,.791,4.874,10.582,10.582,0,0,1-3.255,7.451,10.083,10.083,0,0,1-6.836,3.091,11.941,11.941,0,0,1-3-.31,5.41,5.41,0,0,1-2.617-1.524c-.761-.753-1.537-1.819-2.61-3.161a.961.961,0,0,0-.539-.334,1.954,1.954,0,0,0-.416-.046,1.878,1.878,0,0,0-1.138.389,2.8,2.8,0,0,0-.9,1.32,5.077,5.077,0,0,0,.239,3.814,3.313,3.313,0,0,0,1.809,1.646.952.952,0,0,0,.653-1.788,1.4,1.4,0,0,1-.768-.726,3,3,0,0,1-.293-1.335,2.676,2.676,0,0,1,.251-1.2c.009-.016.016-.024.025-.038.518.657.995,1.274,1.457,1.825a8.867,8.867,0,0,0,3.022,2.514,11.086,11.086,0,0,0,4.825.856,11.958,11.958,0,0,0,8.176-3.642,12.48,12.48,0,0,0,3.818-8.8A17.07,17.07,0,0,0,626.719,635.342Z" transform="translate(-601.385 -629.328)" fill="#aeba00"/>
</svg>
