<svg xmlns="http://www.w3.org/2000/svg" width="21.074" height="30.4" viewBox="0 0 21.074 30.4">
  <path id="Caminho_341" data-name="Caminho 341" d="M1185.464,317.692h0a.93.93,0,0,0-1.3.182l0,0-.077.1c-.322.428-1.573,2.092-2.6,3.512a9.944,9.944,0,0,0-1.2,2.1,5.252,5.252,0,0,0-.405,1.963q0,.195.017.388c.012.14.029.284.046.435a9.025,9.025,0,0,1,.08,1.056,3.692,3.692,0,0,1-.242,1.369,4.044,4.044,0,0,1-1.038,1.473,1.778,1.778,0,0,1-.652.4,1.949,1.949,0,0,1-.63.1,2.311,2.311,0,0,1-.443-.044,2.432,2.432,0,0,1-.875-.358,1.663,1.663,0,0,1-.276-.229.688.688,0,0,1-.126-.173h0a1.61,1.61,0,0,1-.108-.295,1.08,1.08,0,0,1-.027-.262c0-.156.022-.381.058-.717h0c.03-.284.067-.634.1-1.073h0q.009-.119.009-.235a2.869,2.869,0,0,0-.342-1.371,3.658,3.658,0,0,0-1.3-1.338,4.846,4.846,0,0,0-1.421-.6l-.007,0-.047-.009-.012,0-.012,0h0c-.053-.008-.483-.075-1.047-.181s-1.265-.253-1.856-.418a.728.728,0,0,1-.352-.27,1.574,1.574,0,0,1-.278-.612,1.764,1.764,0,0,1-.043-.383,1.518,1.518,0,0,1,.53-1.169,2.15,2.15,0,0,1,.762-.431,2.745,2.745,0,0,1,.84-.118,8.794,8.794,0,0,1,1.489.178c.36.063.711.126,1.062.152h0q.382.028.729.028a6.211,6.211,0,0,0,2.838-.6,6.893,6.893,0,0,0,1.588-1.151h0l.047-.042h0c.736-.664,1.53-1.5,2.154-2.188s1.073-1.216,1.113-1.265a.93.93,0,1,0-1.421-1.2l-.021.025c-.1.12-.553.646-1.137,1.285s-1.3,1.392-1.934,1.961l-.047.043a5.138,5.138,0,0,1-1.182.872,4.342,4.342,0,0,1-1.989.4c-.187,0-.387-.007-.6-.023-.238-.017-.545-.07-.878-.129a10.278,10.278,0,0,0-1.8-.2,4.693,4.693,0,0,0-1.419.2,3.974,3.974,0,0,0-1.411.791,3.364,3.364,0,0,0-1.176,2.57,3.613,3.613,0,0,0,.089.8,3.457,3.457,0,0,0,.417,1.038,4.47,4.47,0,0,1,.06.738,4.111,4.111,0,0,1-.243,1.427,3.161,3.161,0,0,1-1.048,1.423.849.849,0,0,0-.152.155,4.125,4.125,0,0,0-1.007,1.043,3.327,3.327,0,0,0-.511,1.344,3.492,3.492,0,0,0-.037.507,4.63,4.63,0,0,0,.427,1.86,7.823,7.823,0,0,0,1.2,1.873,4.225,4.225,0,0,1,.813,1.351,4.013,4.013,0,0,1,.2,1.351c0,.413-.036.875-.078,1.408l-.021.267h0c-.068.9-.155,2.007-.223,2.868a.93.93,0,0,0,1.854.145c.068-.862.155-1.974.224-2.871h0l.021-.265c.041-.528.082-1.035.082-1.54a5.921,5.921,0,0,0-.285-1.928,6.036,6.036,0,0,0-1.164-1.989,6.12,6.12,0,0,1-.9-1.366,2.807,2.807,0,0,1-.292-1.157,1.663,1.663,0,0,1,.018-.244h0a1.515,1.515,0,0,1,.284-.678,2.533,2.533,0,0,1,.686-.622h0a.828.828,0,0,1,.159-.073,2.6,2.6,0,0,1,.465-.11,4.065,4.065,0,0,1,.61-.045,2.968,2.968,0,0,1,1.371.291.943.943,0,0,1,.368.321.79.79,0,0,1,.109.43c0,.529,0,1,.02,1.424a4.912,4.912,0,0,0,.323,1.7,2.929,2.929,0,0,0,.432.715,3.727,3.727,0,0,0,.661.623,3.874,3.874,0,0,0,1.367.648,7.115,7.115,0,0,0,1.161.181c.142.013.276.027.385.043a1.234,1.234,0,0,1,.209.045.547.547,0,0,1,.115.145.687.687,0,0,1,.092.275l0,.041a.237.237,0,0,1-.029.125.32.32,0,0,1-.115.109,7.262,7.262,0,0,0-1.343,1.041,10.893,10.893,0,0,0-.892,1.057,3.913,3.913,0,0,0-.6,1.262,11.289,11.289,0,0,0-.387,2.2c-.061.7-.072,1.315-.072,1.65,0,.109,0,.188,0,.233a1.077,1.077,0,0,0,.249.655.981.981,0,0,0,.283.236.83.83,0,0,0,.4.1h.209l.127-.153a1.591,1.591,0,0,1,.292-.26,1.1,1.1,0,0,0,.1-.088.707.707,0,0,0,.15-.225.746.746,0,0,0,.054-.288v-.018c0-.071,0-.146,0-.223a16.546,16.546,0,0,1,.164-2.29,7.836,7.836,0,0,1,.221-1.056,2.072,2.072,0,0,1,.285-.643,8.48,8.48,0,0,1,.735-.87,5.655,5.655,0,0,1,1.017-.773,2.181,2.181,0,0,0,.75-.773,2.076,2.076,0,0,0,.267-1.03c0-.067,0-.135-.009-.2h0a2.5,2.5,0,0,0-.244-.857,5.049,5.049,0,0,1,.106-.758h0a2.4,2.4,0,0,1,1.4-1.475,3.656,3.656,0,0,0,1.454-.845,5.876,5.876,0,0,0,1.51-2.186,5.588,5.588,0,0,0,.355-2.015,10.672,10.672,0,0,0-.091-1.266h0c-.016-.141-.031-.269-.041-.38h0q-.01-.111-.01-.224a3.481,3.481,0,0,1,.3-1.334,8.261,8.261,0,0,1,.958-1.644c.583-.807,1.244-1.7,1.759-2.391.258-.346.48-.642.638-.853l.186-.247.051-.067.014-.018,0,0h0v0a.931.931,0,0,0-.181-1.3Zm-10.087,15.751c-.187-.031-.372-.05-.554-.068l-.039.421.039-.421a5.62,5.62,0,0,1-.837-.121,2.029,2.029,0,0,1-.749-.343,1.651,1.651,0,0,1-.388-.382,1.206,1.206,0,0,1-.156-.328,3.517,3.517,0,0,1-.124-.835c-.021-.369-.024-.838-.024-1.432a2.648,2.648,0,0,0-.378-1.391,2.8,2.8,0,0,0-1.069-.994,4.657,4.657,0,0,0-1.931-.506,5.717,5.717,0,0,0,.418-1.7c.543.138,1.108.256,1.588.347.558.106.993.176,1.133.2a3.407,3.407,0,0,1,.9.4,1.83,1.83,0,0,1,.507.47,1.069,1.069,0,0,1,.2.63c0,.029,0,.059,0,.091-.031.413-.065.739-.094,1.015h0a8.887,8.887,0,0,0-.068.919,2.9,2.9,0,0,0,.067.642,3.413,3.413,0,0,0,.235.68,2.887,2.887,0,0,0,1,1.133,4.186,4.186,0,0,0,.868.459A3.249,3.249,0,0,0,1175.377,333.443Z" transform="translate(-1164.758 -314.054)" fill="#aeba00"/>
</svg>
