<svg xmlns="http://www.w3.org/2000/svg" width="21.613" height="21.615" viewBox="0 0 21.613 21.615">
  <g id="Grupo_10" data-name="Grupo 10" transform="translate(0 0)">
    <path id="Path-90" d="M811.948,598.853a1.081,1.081,0,0,1,1.081,1.081v4.323a1.081,1.081,0,0,1-1.081,1.08h-3.242a1.08,1.08,0,1,1,0-2.161h2.161v-3.242A1.081,1.081,0,0,1,811.948,598.853Z" transform="translate(-800.061 -592.368)" fill="#aeba00"/>
    <path id="Shape-52" d="M813.554,616.287a10.807,10.807,0,1,1,10.807-10.807A10.807,10.807,0,0,1,813.554,616.287Zm0-19.453a8.645,8.645,0,1,0,8.647,8.645A8.645,8.645,0,0,0,813.554,596.834Z" transform="translate(-802.748 -594.672)" fill="#aeba00"/>
  </g>
</svg>
